<svg xmlns="http://www.w3.org/2000/svg" viewBox="0 0 24 24">
	<path fill="currentColor" d="M19.9 2.1c-2.4-.2-5.5.4-8 2.9-1 1-1.8 2.1-2.4 3.2l-3.2-.5a1 1 0 0 0-.9.3L2.3 11a1 1 0 0 0 .5 1.7l2.6.6a9 9 0 0 0-.1 1 1 1 0 0 0 .3.7l3.8 3.8a1 1 0 0 0 .7.3 9 9 0 0 0 1-.1l.6 2.6a1 1 0 0 0 1.7.5l3-3.1a1 1 0 0 0 .3-.9l-.5-3.2c1.1-.6 2.2-1.4 3.2-2.4 2.5-2.5 3.1-5.6 2.9-8a1 1 0 0 0-.9-.9zM15 10.5a2 2 0 1 1 0-4 2 2 0 0 1 0 4z"/>
	<path fill="currentColor" d="M6.4 17.6c-1 1-1.4 4-1.4 4s3-.4 4-1.4a1.8 1.8 0 1 0-2.6-2.6z"/>
</svg>
